<svg width="101" height="95" viewBox="0 0 101 95" fill="none" xmlns="http://www.w3.org/2000/svg">
<ellipse cx="50.5" cy="47.5" rx="50.5" ry="47.5" fill="#092B36"/>
<path d="M47.568 70.768C44.5387 70.768 41.744 70.2133 39.184 69.104C36.6667 67.952 34.5973 66.3307 32.976 64.24L38.736 57.328C41.168 60.6133 43.9413 62.256 47.056 62.256C51.28 62.256 53.392 59.7813 53.392 54.832V33.52H37.648V25.2H63.696V54.256C63.696 59.76 62.3307 63.8987 59.6 66.672C56.8693 69.4027 52.8587 70.768 47.568 70.768Z" fill="white"/>
<mask id="mask0" mask-type="alpha" maskUnits="userSpaceOnUse" x="32" y="25" width="32" height="46">
<path d="M47.568 70.768C44.5387 70.768 41.744 70.2133 39.184 69.104C36.6667 67.952 34.5973 66.3307 32.976 64.24L38.736 57.328C41.168 60.6133 43.9413 62.256 47.056 62.256C51.28 62.256 53.392 59.7813 53.392 54.832V33.52H37.648V25.2H63.696V54.256C63.696 59.76 62.3307 63.8987 59.6 66.672C56.8693 69.4027 52.8587 70.768 47.568 70.768Z" fill="white"/>
</mask>
<g mask="url(#mask0)">
<path d="M81.4347 5.18417C81.4347 5.18417 81.4439 5.29577 81.4152 5.52501L76.7322 87.5379C76.7322 87.5379 29 78.5 29 66C29 53.5 44.1361 71.3703 54.5 66C64.8639 60.6297 54.1421 34.6741 68 22.5C79.8163 12.1194 81.2494 6.8518 81.4152 5.52501L81.4347 5.18417Z" fill="#9B8F8F"/>
<path d="M81.4347 5.18417C81.4347 5.18417 81.4439 5.29577 81.4152 5.52501L76.7322 87.5379C76.7322 87.5379 29 78.5 29 66C29 53.5 44.1361 71.3703 54.5 66C64.8639 60.6297 54.1421 34.6741 68 22.5C79.8163 12.1194 81.2494 6.8518 81.4152 5.52501L81.4347 5.18417Z" fill="url(#paint0_linear)"/>
</g>
<defs>
<linearGradient id="paint0_linear" x1="63" y1="2.5" x2="26" y2="77.5" gradientUnits="userSpaceOnUse">
<stop stop-color="#FAF1F1"/>
<stop offset="1" stop-color="#A94949"/>
</linearGradient>
</defs>
</svg>
